<svg width="28" height="28" viewBox="0 0 28 28" fill="none" xmlns="http://www.w3.org/2000/svg">
<g id="search-interface-symbol 3" clip-path="url(#clip0_0_170)">
<g id="Group">
<g id="_x34__4_">
<g id="Group_2">
<path id="Vector" d="M27.7346 26.4767L20.5055 19.3631C22.3985 17.3063 23.5617 14.5862 23.5617 11.593C23.5608 5.18994 18.2868 0 11.7805 0C5.27425 0 0.000274658 5.18994 0.000274658 11.593C0.000274658 17.996 5.27425 23.1859 11.7805 23.1859C14.5917 23.1859 17.17 22.2136 19.1953 20.597L26.4525 27.7387C26.8061 28.0871 27.3802 28.0871 27.7338 27.7387C28.0882 27.3904 28.0882 26.825 27.7346 26.4767ZM11.7805 21.4023C6.27551 21.4023 1.81283 17.0105 1.81283 11.593C1.81283 6.17541 6.27551 1.78364 11.7805 1.78364C17.2856 1.78364 21.7482 6.17541 21.7482 11.593C21.7482 17.0105 17.2856 21.4023 11.7805 21.4023Z" fill="#292929"/>
</g>
</g>
</g>
</g>
<defs>
<clipPath id="clip0_0_170">
<rect width="28" height="28" fill="white"/>
</clipPath>
</defs>
</svg>
