<?xml version="1.0" standalone="no"?>
<!DOCTYPE svg PUBLIC "-//W3C//DTD SVG 20010904//EN"
 "http://www.w3.org/TR/2001/REC-SVG-20010904/DTD/svg10.dtd">
<svg version="1.0" xmlns="http://www.w3.org/2000/svg"
 width="360.000000pt" height="360.000000pt" viewBox="0 0 360.000000 360.000000"
 preserveAspectRatio="xMidYMid meet">

<g transform="translate(0.000000,360.000000) scale(0.100000,-0.100000)"
fill="#000000" stroke="none">
<path d="M2175 2350 c-135 -16 -259 -76 -319 -154 -68 -90 -85 -210 -42 -302
31 -66 90 -116 217 -185 143 -76 176 -130 121 -193 -58 -65 -271 -63 -403 5
l-37 18 -5 -22 c-3 -12 -11 -58 -17 -102 -6 -44 -13 -87 -16 -96 -15 -54 332
-93 479 -54 188 49 294 162 305 323 9 140 -53 223 -237 321 -101 54 -151 97
-151 130 0 27 30 62 66 77 53 22 187 18 265 -9 l66 -22 17 108 c10 60 14 113
9 118 -28 28 -219 52 -318 39z"/>
<path d="M850 1977 c-73 -199 -136 -365 -140 -370 -3 -4 -14 34 -24 84 -25
134 -77 229 -190 348 -60 62 -182 158 -191 149 -3 -3 50 -212 117 -466 l121
-462 146 0 146 0 212 523 c117 287 215 529 218 538 5 14 -10 16 -138 17 l-144
0 -133 -361z"/>
<path d="M1390 2331 c0 -4 -38 -243 -85 -530 -47 -288 -85 -527 -85 -532 0 -5
60 -9 134 -9 l134 0 6 28 c12 53 166 1016 166 1034 0 17 -11 18 -135 18 -74 0
-135 -4 -135 -9z"/>
<path d="M2963 2329 c-45 -9 -72 -27 -89 -60 -13 -26 -390 -922 -415 -986 l-9
-23 144 0 144 0 28 80 27 80 182 0 182 0 17 -80 18 -80 124 0 c83 0 124 4 124
11 0 10 -165 809 -206 995 l-15 70 -114 0 c-62 -1 -126 -4 -142 -7z m108 -486
c21 -103 39 -191 39 -195 0 -5 -52 -8 -115 -8 -63 0 -115 4 -115 9 0 7 103
291 132 364 6 15 13 26 15 23 3 -2 22 -89 44 -193z"/>
<path d="M3488 1355 c-13 -30 -1 -76 22 -83 11 -4 10 -1 -3 12 -21 22 -22 60
-1 80 8 9 11 16 4 16 -6 0 -16 -11 -22 -25z"/>
<path d="M3560 1376 c0 -2 8 -10 18 -17 15 -13 16 -12 3 4 -13 16 -21 21 -21
13z"/>
<path d="M3522 1330 c0 -19 2 -27 5 -17 2 9 2 25 0 35 -3 9 -5 1 -5 -18z"/>
<path d="M3546 1334 c3 -35 12 -41 12 -9 0 14 -4 27 -8 30 -4 2 -6 -7 -4 -21z"/>
<path d="M3591 1324 c0 -11 3 -14 6 -6 3 7 2 16 -1 19 -3 4 -6 -2 -5 -13z"/>
<path d="M3569 1283 c-13 -16 -12 -17 4 -4 16 13 21 21 13 21 -2 0 -10 -8 -17
-17z"/>
</g>
</svg>
